<svg xmlns="http://www.w3.org/2000/svg" xmlns:xlink="http://www.w3.org/1999/xlink" width="512" zoomAndPan="magnify" viewBox="0 0 384 383.999986" height="512" preserveAspectRatio="xMidYMid meet" version="1.0"><path fill="#ffffff" d="M 104.238281 100.011719 C 103.808594 100.707031 104.285156 102.929688 105.402344 105.441406 C 105.824219 106.390625 106.738281 108.722656 107.429688 110.617188 C 108.121094 112.515625 109.402344 116.011719 110.28125 118.382812 C 111.160156 120.757812 112.335938 123.992188 112.894531 125.574219 C 113.453125 127.15625 114.390625 129.445312 114.980469 130.660156 C 116.261719 133.3125 116.34375 136.382812 115.214844 139.582031 C 114.757812 140.878906 113.964844 143.691406 113.453125 145.835938 C 112.941406 147.976562 112.308594 150.25 112.042969 150.882812 C 111.777344 151.515625 110.597656 155.527344 109.421875 159.796875 C 108.246094 164.066406 106.824219 169.113281 106.265625 171.011719 C 105.703125 172.910156 104.707031 176.277344 104.050781 178.488281 C 103.390625 180.703125 102.4375 184.070312 101.925781 185.96875 C 100.199219 192.367188 98.917969 196.871094 97.347656 202.074219 C 96.492188 204.917969 95.664062 207.765625 95.511719 208.398438 C 95.359375 209.03125 94.773438 211.101562 94.210938 213 C 93.613281 215.007812 93.039062 217.019531 92.480469 219.039062 C 92.09375 220.464844 91.546875 222.078125 91.261719 222.628906 C 90.976562 223.175781 90.742188 224.363281 90.742188 225.261719 C 90.742188 226.164062 90.5625 227.082031 90.339844 227.300781 C 90.121094 227.523438 89.457031 229.441406 88.871094 231.566406 C 87.039062 238.195312 85.738281 242.722656 84.128906 248.085938 C 83.273438 250.933594 82.195312 254.816406 81.730469 256.714844 C 81.265625 258.613281 80.664062 260.683594 80.390625 261.316406 C 79.933594 262.390625 79.648438 263.53125 78.851562 267.5 L 78.53125 269.082031 L 119.527344 269.082031 L 120.160156 267.5 C 120.769531 265.957031 121.921875 262.003906 123.796875 254.988281 C 124.304688 253.089844 124.949219 251.019531 125.234375 250.386719 C 125.519531 249.753906 125.859375 248.460938 126 247.511719 C 126.136719 246.5625 127.769531 240.546875 129.632812 234.144531 L 133.015625 222.5 L 152.015625 222.496094 C 169.433594 222.492188 171.082031 222.574219 171.859375 223.5 C 172.324219 224.058594 173.980469 226.453125 175.539062 228.820312 C 177.097656 231.191406 179.167969 233.929688 180.140625 234.902344 C 182.667969 237.433594 186.679688 242.972656 191.109375 250.042969 C 191.425781 250.550781 191.835938 251.09375 192.015625 251.25 C 192.199219 251.410156 193.476562 253.21875 194.855469 255.277344 C 196.234375 257.332031 199.03125 261.28125 201.070312 264.046875 L 204.777344 269.082031 L 235.1875 269.082031 C 251.910156 269.082031 265.597656 268.882812 265.597656 268.640625 C 265.597656 268.394531 264.949219 267.246094 264.15625 266.082031 C 263.367188 264.917969 262.71875 263.847656 262.71875 263.699219 C 262.71875 263.554688 259.742188 259.03125 256.105469 253.648438 C 252.46875 248.265625 249.492188 243.703125 249.492188 243.507812 C 249.492188 243.308594 249.222656 242.835938 248.898438 242.453125 C 248.003906 241.410156 235.6875 222.523438 235.6875 222.199219 C 235.6875 222.042969 236.25 221.917969 236.941406 221.917969 C 237.628906 221.917969 238.988281 221.671875 239.960938 221.375 C 240.929688 221.074219 243.667969 220.269531 246.039062 219.585938 C 258.542969 215.980469 271.191406 206.363281 276.222656 196.636719 C 277.441406 194.28125 279.976562 186.542969 279.976562 185.179688 C 279.976562 184.542969 280.234375 183.863281 280.550781 183.667969 C 280.867188 183.472656 281.125 182.695312 281.125 181.941406 C 281.125 181.1875 281.355469 180.429688 281.640625 180.253906 C 281.921875 180.078125 282.269531 178.960938 282.410156 177.773438 C 282.550781 176.585938 283.355469 173.351562 284.195312 170.582031 C 288.765625 155.550781 292.527344 142.613281 293.011719 140.242188 C 293.3125 138.765625 293.917969 136.648438 297.609375 124.136719 C 299.484375 117.789062 299.738281 116.183594 299.777344 110.429688 C 299.8125 104.652344 299.695312 103.820312 298.722656 103.109375 C 297.105469 101.925781 292.410156 100.695312 286.890625 100.007812 C 280.085938 99.164062 104.761719 99.164062 104.238281 100.011719 M 301.832031 109.980469 C 301.832031 114.359375 300.8125 119.667969 298.398438 127.875 C 297.613281 130.539062 295.738281 137.171875 294.332031 142.253906 C 293.628906 144.785156 292.59375 148.40625 292.027344 150.304688 C 291.460938 152.203125 290.441406 155.699219 289.765625 158.070312 C 289.085938 160.445312 288.15625 163.597656 287.703125 165.082031 C 287.25 166.5625 286.878906 168.296875 286.878906 168.929688 C 286.878906 169.5625 286.617188 170.242188 286.300781 170.4375 C 285.984375 170.632812 285.726562 171.410156 285.726562 172.164062 C 285.726562 172.917969 285.46875 173.691406 285.152344 173.886719 C 284.835938 174.085938 284.578125 175 284.578125 175.925781 C 284.578125 176.847656 284.214844 178.578125 283.773438 179.773438 C 283.332031 180.964844 282.140625 184.660156 281.128906 187.980469 C 277.382812 200.238281 274.761719 204.257812 265.882812 211.351562 C 262.78125 213.832031 257.265625 217.316406 256.441406 217.316406 C 256.164062 217.316406 254.550781 218.039062 252.855469 218.925781 C 249.769531 220.539062 245.089844 222.167969 241.570312 222.847656 C 240.535156 223.050781 239.535156 223.464844 239.347656 223.769531 C 239.15625 224.074219 240.285156 226.175781 241.851562 228.441406 C 243.417969 230.703125 245.308594 233.65625 246.050781 235 C 246.792969 236.34375 247.613281 237.445312 247.871094 237.445312 C 248.128906 237.445312 248.339844 237.835938 248.339844 238.308594 C 248.339844 238.785156 248.597656 239.171875 248.914062 239.171875 C 249.230469 239.171875 249.492188 239.457031 249.492188 239.804688 C 249.492188 240.53125 257.941406 253.375 258.742188 253.867188 C 259.527344 254.351562 259.398438 253.902344 258.011719 251.304688 C 257.320312 250.007812 256.542969 248.949219 256.285156 248.949219 C 256.027344 248.949219 255.816406 248.601562 255.816406 248.175781 C 255.816406 247.75 255.300781 246.933594 254.667969 246.359375 C 254.035156 245.789062 253.515625 245.0625 253.515625 244.75 C 253.515625 244.039062 249.441406 237.804688 248.804688 237.542969 C 248.550781 237.4375 248.339844 236.894531 248.339844 236.339844 C 248.339844 235.328125 249.195312 234.96875 255.242188 233.425781 C 258.390625 232.625 267.277344 228.945312 268.472656 227.949219 C 268.945312 227.554688 270.242188 226.773438 271.347656 226.210938 C 273.804688 224.96875 277.574219 221.902344 280.757812 218.550781 C 283.464844 215.707031 288.019531 209.300781 288.023438 208.328125 C 288.027344 207.972656 288.519531 206.550781 289.117188 205.164062 C 289.71875 203.78125 291.949219 196.4375 294.070312 188.84375 C 296.195312 181.25 298.140625 174.519531 298.390625 173.886719 C 298.804688 172.832031 302.296875 160.679688 304.75 151.746094 C 305.316406 149.6875 306.703125 144.898438 307.835938 141.101562 C 312.707031 124.769531 312.804688 118.097656 308.277344 110.804688 C 306.894531 108.574219 303.328125 105.15625 302.386719 105.15625 C 302.074219 105.15625 301.832031 107.261719 301.832031 109.980469 M 157.277344 138.945312 C 156.738281 140.765625 155.425781 145.230469 154.359375 148.867188 C 153.207031 152.800781 152.039062 156.734375 150.863281 160.660156 C 149.402344 165.503906 148.328125 169.445312 147.457031 173.167969 L 147.085938 174.75 L 154.289062 174.75 C 159.457031 174.75 161.488281 174.945312 161.488281 175.433594 C 161.488281 175.808594 160.953125 178.03125 160.296875 180.371094 C 159.640625 182.710938 159.242188 184.992188 159.414062 185.4375 C 159.679688 186.132812 165.53125 186.253906 198.234375 186.253906 C 219.414062 186.253906 237.152344 186.097656 237.652344 185.90625 C 238.152344 185.714844 238.5625 185.238281 238.5625 184.851562 C 238.5625 184.460938 239.050781 182.613281 239.648438 180.742188 C 240.246094 178.871094 241.6875 173.84375 242.855469 169.574219 C 244.023438 165.304688 245.21875 161.359375 245.511719 160.8125 C 245.800781 160.261719 246.039062 159.335938 246.039062 158.75 C 246.039062 158.164062 246.222656 157.503906 246.445312 157.28125 C 246.667969 157.058594 246.9375 156.175781 247.042969 155.316406 C 247.148438 154.460938 247.5 152.921875 247.828125 151.898438 C 248.15625 150.878906 248.257812 149.777344 248.058594 149.453125 C 247.851562 149.117188 245.152344 148.867188 241.691406 148.867188 C 238.390625 148.867188 235.6875 148.804688 235.6875 148.722656 C 235.6875 148.644531 236.464844 145.863281 237.414062 142.542969 C 238.359375 139.222656 239.136719 136.308594 239.136719 136.070312 C 239.136719 135.832031 220.9375 135.640625 198.695312 135.640625 L 158.253906 135.640625 Z M 159.585938 137.796875 C 159.257812 138.378906 156.804688 146.695312 154.875 153.757812 C 154.011719 156.921875 153.09375 160.027344 152.835938 160.660156 C 152.578125 161.292969 152.039062 163.234375 151.640625 164.972656 C 151.246094 166.714844 150.746094 168.394531 150.53125 168.710938 C 150.316406 169.027344 149.980469 169.972656 149.78125 170.808594 C 149.304688 172.800781 149.972656 173.027344 156.316406 173.027344 C 162.320312 173.027344 162.6875 172.78125 163.773438 168.058594 C 164.199219 166.203125 164.765625 164.441406 165.03125 164.140625 C 165.296875 163.839844 165.515625 163.203125 165.515625 162.726562 C 165.515625 161.453125 169.007812 150.425781 169.675781 149.59375 C 170.117188 149.042969 177.539062 148.84375 201.9375 148.730469 L 233.625 148.582031 L 234.3125 146.566406 C 235.941406 141.785156 236.808594 138.359375 236.511719 137.882812 C 236.128906 137.257812 159.941406 137.171875 159.585938 137.796875 M 134.171875 225.222656 C 133.457031 226.992188 130.917969 235.925781 130.457031 238.308594 C 130.210938 239.574219 129.296875 242.9375 128.425781 245.785156 C 126.042969 253.554688 123.820312 261.367188 121.75 269.222656 L 121.179688 271.382812 L 99.203125 271.382812 L 77.226562 271.386719 L 76.140625 275.554688 C 75.546875 277.847656 74.933594 280.433594 74.78125 281.304688 L 74.503906 282.886719 L 102.433594 282.886719 C 124.148438 282.886719 130.460938 282.726562 130.820312 282.167969 C 131.070312 281.769531 131.699219 279.894531 132.21875 277.996094 C 132.738281 276.097656 135.15625 267.6875 137.597656 259.304688 C 140.035156 250.917969 142.429688 242.507812 142.917969 240.609375 C 143.40625 238.710938 144.0625 236.835938 144.375 236.4375 C 144.808594 235.894531 148.84375 235.71875 160.984375 235.71875 C 175.871094 235.71875 177.019531 235.648438 177.015625 234.714844 C 177.015625 233.75 174.085938 229.019531 171.472656 225.757812 L 170.238281 224.214844 L 152.40625 224.214844 C 135.964844 224.214844 134.546875 224.296875 134.171875 225.222656 M 259.269531 255.277344 C 259.269531 255.59375 259.527344 255.851562 259.84375 255.851562 C 260.160156 255.851562 260.417969 256.238281 260.417969 256.714844 C 260.417969 257.1875 260.679688 257.578125 260.996094 257.578125 C 261.3125 257.578125 261.570312 257.964844 261.570312 258.441406 C 261.570312 258.914062 261.828125 259.304688 262.144531 259.304688 C 262.460938 259.304688 262.71875 259.5625 262.71875 259.882812 C 262.71875 260.203125 264.148438 262.679688 265.894531 265.382812 C 267.640625 268.089844 268.917969 270.546875 268.738281 270.84375 C 268.535156 271.167969 256.125 271.382812 237.664062 271.382812 C 217.734375 271.382812 206.925781 271.582031 206.925781 271.953125 C 206.925781 272.265625 207.769531 273.644531 208.796875 275.015625 C 210.066406 276.726562 211.308594 278.453125 212.523438 280.199219 L 214.382812 282.886719 L 246.027344 282.886719 C 272.414062 282.886719 277.675781 282.753906 277.675781 282.097656 C 277.675781 281.664062 276.539062 279.617188 275.152344 277.550781 C 273.765625 275.480469 272.535156 273.519531 272.417969 273.191406 C 271.996094 271.988281 260.117188 254.730469 259.699219 254.71875 C 259.460938 254.707031 259.269531 254.960938 259.269531 255.277344 " fill-opacity="1" fill-rule="evenodd"/></svg>